<svg width="273" height="84" viewBox="0 0 273 84" fill="none" xmlns="http://www.w3.org/2000/svg">
<path d="M41.62 83.24C64.6061 83.24 83.24 64.6061 83.24 41.62C83.24 18.6339 64.6061 0 41.62 0C18.6339 0 0 18.6339 0 41.62C0 64.6061 18.6339 83.24 41.62 83.24Z" fill="white"/>
<path fill-rule="evenodd" clip-rule="evenodd" d="M53.3 50.25V11.55C52.35 11.18 51.38 10.85 50.39 10.58C47.6 9.79 44.66 9.37 41.63 9.37C23.82 9.37 9.38 23.81 9.38 41.62C9.38 51.29 13.64 59.98 20.39 65.89V69.65C11.93 63.23 6.46 53.06 6.46 41.62C6.46 22.2 22.2 6.46 41.62 6.46C44.65 6.46 47.58 6.84 50.38 7.56C51.37 7.81 52.34 8.11 53.29 8.45C54.32 8.81 55.34 9.23 56.33 9.68V47.49H65.41V50.25H53.29H53.3ZM73.86 41.62C73.86 59.43 59.42 73.87 41.61 73.87C37.24 73.87 33.07 73 29.27 71.42C28.27 71.01 27.3 70.54 26.36 70.04V35.8H31.84V32.99H17.82V35.8H23.3V71.64C24.29 72.24 25.31 72.8 26.36 73.31C27.31 73.77 28.28 74.18 29.27 74.56C33.11 76 37.27 76.79 41.61 76.79C61.03 76.79 76.77 61.04 76.77 41.63C76.77 28.64 69.72 17.29 59.24 11.2V14.62C68.04 20.38 73.86 30.32 73.86 41.62ZM80.47 41.62C80.47 20.17 63.07 2.77 41.62 2.77C20.17 2.77 2.76 20.16 2.76 41.62C2.76 63.08 20.16 80.47 41.61 80.47C63.06 80.47 80.46 63.07 80.46 41.62H80.47ZM39.14 33.39C38.05 33.86 37.12 34.5 36.33 35.31C35.54 36.12 34.93 37.07 34.49 38.16C34.05 39.25 33.84 40.41 33.84 41.64C33.84 42.87 34.06 44.06 34.51 45.14C34.95 46.23 35.57 47.17 36.35 47.97C37.13 48.77 38.06 49.4 39.13 49.86C40.2 50.32 41.37 50.55 42.63 50.55C43.44 50.55 44.17 50.48 44.84 50.34C45.51 50.2 46.12 49.99 46.68 49.72C47.24 49.45 47.76 49.13 48.25 48.76C48.74 48.39 49.2 47.97 49.64 47.49L47.69 45.52C46.95 46.21 46.2 46.76 45.44 47.16C44.68 47.56 43.78 47.76 42.73 47.76C41.91 47.76 41.15 47.6 40.45 47.28C39.75 46.96 39.15 46.52 38.64 45.96C38.13 45.4 37.74 44.75 37.46 44C37.18 43.25 37.04 42.45 37.04 41.59C37.04 40.73 37.18 39.94 37.46 39.2C37.74 38.46 38.13 37.81 38.64 37.26C39.15 36.71 39.75 36.27 40.45 35.95C41.15 35.63 41.91 35.47 42.73 35.47C43.72 35.47 44.6 35.67 45.37 36.06C46.14 36.45 46.88 36.97 47.57 37.61L49.52 35.36C49.11 34.97 48.67 34.6 48.21 34.27C47.75 33.94 47.25 33.66 46.7 33.42C46.16 33.18 45.56 33 44.91 32.86C44.26 32.73 43.54 32.66 42.75 32.66C41.43 32.66 40.23 32.89 39.15 33.36L39.14 33.39Z" fill="#CE5527"/>
<path d="M272.82 33.58H264.5V35.62H270.63V40.63C269.94 41.19 269.09 41.66 268.07 42.05C267.05 42.44 265.97 42.64 264.82 42.64C263.59 42.64 262.49 42.43 261.51 42.01C260.53 41.59 259.7 41 259.01 40.25C258.32 39.5 257.79 38.61 257.41 37.59C257.04 36.56 256.85 35.45 256.85 34.24C256.85 33.11 257.04 32.04 257.43 31.03C257.81 30.02 258.34 29.15 259.01 28.4C259.68 27.65 260.49 27.06 261.43 26.62C262.37 26.18 263.4 25.96 264.51 25.96C265.22 25.96 265.87 26.02 266.45 26.13C267.04 26.24 267.57 26.4 268.06 26.6C268.55 26.8 269 27.04 269.43 27.32C269.85 27.6 270.25 27.91 270.64 28.26L272.11 26.53C271.61 26.11 271.1 25.73 270.57 25.39C270.04 25.05 269.48 24.77 268.87 24.54C268.27 24.31 267.61 24.14 266.91 24.02C266.21 23.9 265.44 23.85 264.59 23.85C263.07 23.85 261.7 24.13 260.46 24.7C259.22 25.27 258.16 26.03 257.28 26.99C256.4 27.95 255.71 29.06 255.22 30.33C254.73 31.6 254.49 32.92 254.49 34.3C254.49 35.68 254.73 37.09 255.2 38.36C255.67 39.63 256.35 40.73 257.24 41.67C258.13 42.61 259.21 43.35 260.46 43.89C261.72 44.43 263.14 44.7 264.73 44.7C266.44 44.7 267.98 44.4 269.35 43.79C270.72 43.19 271.88 42.46 272.82 41.62V33.58ZM171.68 33.01L180.31 24.21H177.38L165.81 36.24V24.21H163.54V44.35H165.81V38.94L170.1 34.6L177.84 44.35H180.69L171.68 33.01ZM158.97 44.35L152.78 36.12C153.57 35.99 154.3 35.76 154.97 35.43C155.64 35.1 156.22 34.7 156.71 34.21C157.2 33.72 157.58 33.15 157.85 32.48C158.12 31.82 158.25 31.07 158.25 30.22C158.25 29.32 158.08 28.5 157.73 27.76C157.38 27.02 156.9 26.39 156.26 25.86C155.63 25.33 154.86 24.93 153.97 24.64C153.08 24.35 152.08 24.21 150.96 24.21H142.3V44.35H144.57V36.52H150.32L156.16 44.35H158.97ZM155.95 30.3C155.95 30.95 155.82 31.54 155.56 32.05C155.3 32.57 154.94 33 154.48 33.36C154.02 33.71 153.47 33.99 152.84 34.18C152.21 34.37 151.52 34.47 150.77 34.47H144.58V26.3H150.8C152.43 26.3 153.7 26.65 154.6 27.35C155.5 28.05 155.95 29.03 155.95 30.3ZM128.74 24.06H126.61L117.43 44.35H119.76L122.15 39.03H133.11L135.47 44.35H137.92L128.74 24.06ZM132.22 36.98H123.04L127.64 26.71L132.21 36.98H132.22ZM110.76 28.03V44.34H113.03V24.2H110.73L103.39 35.19L96.05 24.2H93.75V44.34H95.97V28.05L103.31 38.81H103.43L110.77 28.02L110.76 28.03ZM218.74 26.3V24.2H202.91V26.3H209.67V44.34H211.97V26.3H218.74ZM223.63 24.2V44.34H225.9V24.2H223.63ZM247.04 40.35L234.35 24.21H232.22V44.35H234.44V27.83L247.45 44.35H249.26V24.21H247.04V40.35Z" fill="#4C4C4D"/>
<path d="M199.35 42.27H184.65V44.34H199.35V42.27Z" fill="#4C4C4D"/>
<path d="M199.35 33.24H184.65V35.31H199.35V33.24Z" fill="#4C4C4D"/>
<path d="M199.35 24.2H184.65V26.27H199.35V24.2Z" fill="#4C4C4D"/>
<path d="M93.64 50.86H98.61V51.58H94.42V54.05H98.16V54.76H94.42V57.77H93.64V50.86Z" fill="#4C4C4D"/>
<path d="M99.91 55.83V52.66H100.67V55.64C100.67 56.59 101.18 57.18 102.08 57.18C102.98 57.18 103.61 56.54 103.61 55.58V52.66H104.36V57.76H103.61V56.87C103.26 57.42 102.74 57.87 101.86 57.87C100.63 57.87 99.91 57.04 99.91 55.83Z" fill="#4C4C4D"/>
<path d="M106.14 50.56H106.9V57.77H106.14V50.56Z" fill="#4C4C4D"/>
<path d="M108.74 50.56H109.5V57.77H108.74V50.56Z" fill="#4C4C4D"/>
<path d="M111.06 54.4H113.8V55.2H111.06V54.4Z" fill="#4C4C4D"/>
<path d="M114.97 56.76L115.45 56.19C116.17 56.84 116.86 57.17 117.82 57.17C118.78 57.17 119.36 56.68 119.36 56V55.98C119.36 55.34 119.01 54.97 117.56 54.67C115.97 54.32 115.24 53.81 115.24 52.68V52.66C115.24 51.57 116.2 50.78 117.51 50.78C118.52 50.78 119.24 51.07 119.94 51.63L119.49 52.23C118.85 51.71 118.21 51.48 117.5 51.48C116.6 51.48 116.03 51.97 116.03 52.6V52.62C116.03 53.27 116.39 53.64 117.91 53.96C119.45 54.3 120.16 54.86 120.16 55.91V55.93C120.16 57.11 119.17 57.88 117.8 57.88C116.7 57.88 115.81 57.51 114.98 56.77L114.97 56.76Z" fill="#4C4C4D"/>
<path d="M121.3 55.23V55.21C121.3 53.74 122.34 52.55 123.75 52.55C125.26 52.55 126.13 53.75 126.13 55.24C126.13 55.34 126.13 55.4 126.13 55.49H122.08C122.19 56.6 122.97 57.22 123.88 57.22C124.58 57.22 125.07 56.93 125.49 56.5L125.96 56.92C125.45 57.49 124.82 57.88 123.86 57.88C122.46 57.88 121.31 56.8 121.31 55.22L121.3 55.23ZM125.36 54.93C125.28 54 124.75 53.19 123.73 53.19C122.84 53.19 122.17 53.93 122.07 54.93H125.36Z" fill="#4C4C4D"/>
<path d="M127.46 52.66H128.22V53.99C128.6 53.14 129.34 52.53 130.3 52.57V53.39H130.24C129.12 53.39 128.22 54.19 128.22 55.73V57.76H127.46V52.66Z" fill="#4C4C4D"/>
<path d="M130.95 52.66H131.79L133.51 56.9L135.24 52.66H136.06L133.84 57.8H133.17L130.96 52.66H130.95Z" fill="#4C4C4D"/>
<path d="M137.27 50.71H138.14V51.55H137.27V50.71ZM137.32 52.66H138.08V57.76H137.32V52.66Z" fill="#4C4C4D"/>
<path d="M139.54 55.22C139.54 53.78 140.66 52.55 142.16 52.55C143.13 52.55 143.73 52.95 144.2 53.46L143.7 53.99C143.29 53.57 142.84 53.22 142.15 53.22C141.11 53.22 140.32 54.1 140.32 55.19V55.21C140.32 56.32 141.13 57.19 142.2 57.19C142.85 57.19 143.36 56.86 143.76 56.43L144.24 56.88C143.73 57.45 143.12 57.87 142.16 57.87C140.67 57.87 139.54 56.66 139.54 55.22Z" fill="#4C4C4D"/>
<path d="M145.03 55.23V55.21C145.03 53.74 146.07 52.55 147.48 52.55C148.99 52.55 149.86 53.75 149.86 55.24C149.86 55.34 149.86 55.4 149.86 55.49H145.81C145.92 56.6 146.7 57.22 147.61 57.22C148.31 57.22 148.81 56.93 149.22 56.5L149.69 56.92C149.18 57.49 148.56 57.88 147.59 57.88C146.19 57.88 145.04 56.8 145.04 55.22L145.03 55.23ZM149.08 54.93C149 54 148.47 53.19 147.45 53.19C146.56 53.19 145.89 53.93 145.79 54.93H149.08Z" fill="#4C4C4D"/>
<path d="M150.69 58.62C151.18 58.44 151.39 58.19 151.35 57.76H150.99V56.72H151.9V57.61C151.9 58.41 151.56 58.79 150.8 58.96L150.68 58.61L150.69 58.62Z" fill="#4C4C4D"/>
<path d="M158.39 51.58H156.06V50.86H161.5V51.58H159.17V57.77H158.39V51.58Z" fill="#CE5527"/>
<path d="M162.93 50.86H165.9C166.75 50.86 167.43 51.12 167.86 51.55C168.19 51.89 168.39 52.37 168.39 52.91V52.93C168.39 54.07 167.6 54.75 166.51 54.94L168.63 57.76H167.67L165.67 55.08H163.7V57.76H162.92V50.85L162.93 50.86ZM165.83 54.38C166.87 54.38 167.61 53.85 167.61 52.96V52.94C167.61 52.09 166.96 51.58 165.84 51.58H163.71V54.38H165.83Z" fill="#CE5527"/>
<path d="M172.62 50.81H173.35L176.5 57.77H175.66L174.85 55.94H171.09L170.27 57.77H169.47L172.62 50.81ZM174.55 55.24L172.98 51.72L171.4 55.24H174.55Z" fill="#CE5527"/>
<path d="M177.87 50.86H178.6L182.95 56.4V50.86H183.71V57.77H183.09L178.63 52.1V57.77H177.87V50.86Z" fill="#CE5527"/>
<path d="M185.21 56.76L185.69 56.19C186.41 56.84 187.1 57.17 188.06 57.17C189.02 57.17 189.6 56.68 189.6 56V55.98C189.6 55.34 189.26 54.97 187.8 54.67C186.21 54.32 185.48 53.81 185.48 52.68V52.66C185.48 51.57 186.44 50.78 187.75 50.78C188.76 50.78 189.48 51.07 190.18 51.63L189.73 52.23C189.09 51.71 188.45 51.48 187.74 51.48C186.84 51.48 186.27 51.97 186.27 52.6V52.62C186.27 53.27 186.63 53.64 188.15 53.96C189.69 54.3 190.4 54.86 190.4 55.91V55.93C190.4 57.11 189.41 57.88 188.04 57.88C186.94 57.88 186.05 57.51 185.22 56.77L185.21 56.76Z" fill="#CE5527"/>
<path d="M191.99 50.86H194.58C196.14 50.86 197.17 51.69 197.17 53.05V53.07C197.17 54.56 195.93 55.33 194.46 55.33H192.78V57.77H192V50.86H191.99ZM194.47 54.62C195.62 54.62 196.37 54.01 196.37 53.1V53.08C196.37 52.09 195.63 51.58 194.51 51.58H192.76V54.62H194.47Z" fill="#CE5527"/>
<path d="M200.45 50.81H201.18L204.33 57.77H203.49L202.68 55.94H198.92L198.1 57.77H197.3L200.45 50.81ZM202.37 55.24L200.8 51.72L199.22 55.24H202.37Z" fill="#CE5527"/>
<path d="M205.69 50.86H208.66C209.51 50.86 210.19 51.12 210.62 51.55C210.95 51.89 211.15 52.37 211.15 52.91V52.93C211.15 54.07 210.36 54.75 209.27 54.94L211.39 57.76H210.43L208.43 55.08H206.46V57.76H205.68V50.85L205.69 50.86ZM208.6 54.38C209.64 54.38 210.38 53.85 210.38 52.96V52.94C210.38 52.09 209.73 51.58 208.61 51.58H206.48V54.38H208.6Z" fill="#CE5527"/>
<path d="M212.83 50.86H217.83V51.57H213.61V53.93H217.38V54.64H213.61V57.06H217.88V57.77H212.84V50.86H212.83Z" fill="#CE5527"/>
<path d="M219.45 50.86H220.18L224.53 56.4V50.86H225.29V57.77H224.67L220.21 52.1V57.77H219.45V50.86Z" fill="#CE5527"/>
<path d="M229.05 51.58H226.72V50.86H232.16V51.58H229.83V57.77H229.05V51.58Z" fill="#CE5527"/>
<path d="M239.1 50.81H239.83L242.98 57.77H242.14L241.33 55.94H237.57L236.75 57.77H235.95L239.1 50.81ZM241.02 55.24L239.45 51.72L237.87 55.24H241.02Z" fill="#4C4C4D"/>
<path d="M243.91 58.65L244.26 58.06C244.84 58.48 245.49 58.71 246.22 58.71C247.35 58.71 248.08 58.09 248.08 56.89V56.29C247.64 56.88 247.01 57.37 246.08 57.37C244.86 57.37 243.68 56.45 243.68 54.98V54.96C243.68 53.47 244.86 52.55 246.08 52.55C247.04 52.55 247.66 53.02 248.07 53.58V52.66H248.83V56.87C248.83 57.66 248.59 58.26 248.18 58.68C247.73 59.13 247.04 59.36 246.23 59.36C245.42 59.36 244.59 59.12 243.91 58.65ZM248.09 54.97V54.95C248.09 53.9 247.18 53.22 246.21 53.22C245.24 53.22 244.44 53.89 244.44 54.94V54.96C244.44 55.99 245.26 56.7 246.21 56.7C247.16 56.7 248.09 56 248.09 54.97Z" fill="#4C4C4D"/>
<path d="M250.21 55.23V55.21C250.21 53.74 251.25 52.55 252.66 52.55C254.17 52.55 255.04 53.75 255.04 55.24C255.04 55.34 255.04 55.4 255.04 55.49H250.99C251.1 56.6 251.88 57.22 252.79 57.22C253.49 57.22 253.99 56.93 254.4 56.5L254.87 56.92C254.36 57.49 253.74 57.88 252.77 57.88C251.37 57.88 250.22 56.8 250.22 55.22L250.21 55.23ZM254.27 54.93C254.19 54 253.66 53.19 252.64 53.19C251.75 53.19 251.08 53.93 250.98 54.93H254.27Z" fill="#4C4C4D"/>
<path d="M256.37 52.66H257.13V53.55C257.47 53 258 52.55 258.88 52.55C260.11 52.55 260.84 53.38 260.84 54.59V57.76H260.08V54.78C260.08 53.83 259.57 53.24 258.67 53.24C257.77 53.24 257.14 53.88 257.14 54.84V57.76H256.38V52.66H256.37Z" fill="#4C4C4D"/>
<path d="M262.14 55.22C262.14 53.78 263.26 52.55 264.76 52.55C265.73 52.55 266.33 52.95 266.8 53.46L266.3 53.99C265.89 53.57 265.44 53.22 264.75 53.22C263.71 53.22 262.92 54.1 262.92 55.19V55.21C262.92 56.32 263.73 57.19 264.8 57.19C265.45 57.19 265.96 56.86 266.36 56.43L266.84 56.88C266.33 57.45 265.72 57.87 264.76 57.87C263.27 57.87 262.14 56.66 262.14 55.22Z" fill="#4C4C4D"/>
<path d="M271.86 52.66H272.67L270.53 57.93C270.1 58.99 269.6 59.37 268.83 59.37C268.41 59.37 268.09 59.28 267.74 59.11L268 58.51C268.25 58.64 268.47 58.7 268.8 58.7C269.25 58.7 269.54 58.46 269.85 57.74L267.53 52.66H268.37L270.23 56.91L271.87 52.66H271.86Z" fill="#4C4C4D"/>
</svg>
